<?xml version="1.0" encoding="UTF-8"?>
<svg xmlns="http://www.w3.org/2000/svg" xmlns:xlink="http://www.w3.org/1999/xlink" width="25px" height="25px" viewBox="0 0 25 25" version="1.1">
<g id="surface1">
<path style=" stroke:none;fill-rule:nonzero;fill:rgb(100%,100%,100%);fill-opacity:1;" d="M 10.5 0 C 9.675781 0 9 0.675781 9 1.5 L 9 2.5 L 5.078125 2.5 C 5.027344 2.492188 4.972656 2.492188 4.917969 2.5 L 4 2.5 C 3.820312 2.496094 3.652344 2.59375 3.5625 2.746094 C 3.46875 2.902344 3.46875 3.097656 3.5625 3.253906 C 3.652344 3.40625 3.820312 3.503906 4 3.5 L 4.542969 3.5 L 6.351562 23.75 L 6.351562 23.753906 C 6.429688 24.429688 6.992188 25 7.699219 25 L 17.300781 25 C 18.007812 25 18.570312 24.429688 18.648438 23.753906 L 18.648438 23.75 L 20.457031 3.5 L 21 3.5 C 21.179688 3.503906 21.347656 3.40625 21.4375 3.253906 C 21.53125 3.097656 21.53125 2.902344 21.4375 2.746094 C 21.347656 2.59375 21.179688 2.496094 21 2.5 L 20.085938 2.5 C 20.03125 2.492188 19.976562 2.492188 19.921875 2.5 L 16 2.5 L 16 1.5 C 16 0.675781 15.324219 0 14.5 0 Z M 10.5 1 L 14.5 1 C 14.777344 1 15 1.222656 15 1.5 L 15 2.5 L 10 2.5 L 10 1.5 C 10 1.222656 10.222656 1 10.5 1 Z M 5.546875 3.5 L 9.414062 3.5 C 9.46875 3.507812 9.523438 3.507812 9.578125 3.5 L 15.414062 3.5 C 15.46875 3.507812 15.523438 3.507812 15.578125 3.5 L 19.453125 3.5 L 17.652344 23.644531 C 17.628906 23.867188 17.492188 24 17.300781 24 L 7.699219 24 C 7.507812 24 7.371094 23.867188 7.347656 23.644531 Z M 9.492188 4.992188 C 9.214844 4.996094 8.996094 5.222656 9 5.5 L 9 22 C 8.996094 22.179688 9.09375 22.347656 9.246094 22.4375 C 9.402344 22.53125 9.597656 22.53125 9.753906 22.4375 C 9.90625 22.347656 10.003906 22.179688 10 22 L 10 5.5 C 10 5.363281 9.949219 5.234375 9.851562 5.140625 C 9.757812 5.042969 9.628906 4.992188 9.492188 4.992188 Z M 12.492188 4.992188 C 12.214844 4.996094 11.996094 5.222656 12 5.5 L 12 22 C 11.996094 22.179688 12.09375 22.347656 12.246094 22.4375 C 12.402344 22.53125 12.597656 22.53125 12.753906 22.4375 C 12.90625 22.347656 13.003906 22.179688 13 22 L 13 5.5 C 13 5.363281 12.949219 5.234375 12.851562 5.140625 C 12.757812 5.042969 12.628906 4.992188 12.492188 4.992188 Z M 15.492188 4.992188 C 15.214844 4.996094 14.996094 5.222656 15 5.5 L 15 22 C 14.996094 22.179688 15.09375 22.347656 15.246094 22.4375 C 15.402344 22.53125 15.597656 22.53125 15.753906 22.4375 C 15.90625 22.347656 16.003906 22.179688 16 22 L 16 5.5 C 16 5.363281 15.949219 5.234375 15.851562 5.140625 C 15.757812 5.042969 15.628906 4.992188 15.492188 4.992188 Z M 15.492188 4.992188 "/>
</g>
</svg>
